# xmcd CD database file generated by Grip 3.1.4
# 
# Track frame offsets:
#       150
#       11509
#       27041
#       41771
#       54398
#       69573
#       83673
#       97605
#       112435
#       124834
#       139738
#       154694
#       169427
#       181697
#       197942
#       212789
#       227932
#       240128
# 
# Disc length: 3365 seconds
# 
# Revision: 3
# Processed by: cddbd v1.5.1PL0 Copyright (c) Steve Scherf et al.
# Submitted via: Grip 3.1.4
# 
DISCID=ee0d2312
DTITLE=Frank Sinatra - Night and Day
DYEAR=1900
DGENRE=Swing
TTITLE0=Blue Skies
TTITLE1=Guess I'll Hang My Tears Out To Dry
TTITLE2=Sweet Lorraine
TTITLE3=Falling In Love With You
TTITLE4=There's No Business Like Show Business
TTITLE5=September Song
TTITLE6=I Believe
TTITLE7=Everybody Loves Somebody
TTITLE8=Why Was I Born
TTITLE9=I've Got A Crush On You
TTITLE10=Body And Soul
TTITLE11=That Old Feeling
TTITLE12=Almost Like Being In Love
TTITLE13=It Never Entered My Mind
TTITLE14=The Song Is You
TTITLE15=Night And Day
TTITLE16=The Nearness Of You
TTITLE17=All Of Me
EXTD=
EXTT0=
EXTT1=
EXTT2=
EXTT3=
EXTT4=
EXTT5=
EXTT6=
EXTT7=
EXTT8=
EXTT9=
EXTT10=
EXTT11=
EXTT12=
EXTT13=
EXTT14=
EXTT15=
EXTT16=
EXTT17=
PLAYORDER=
